<svg data-v-423bf9ae="" xmlns="http://www.w3.org/2000/svg" viewBox="0 0 529 90" class="iconLeft"><!----><!----><!----><g data-v-423bf9ae="" id="da364972-6ebe-4939-9dcf-c28197cae85f" fill="black" transform="matrix(4.315819263458252,0,0,4.315819263458252,120.72367858886719,3.5698208808898926)"><path d="M0.50 13.30L3.14 13.30C5.45 13.30 6.31 13.41 6.31 13.41C6.22 12.60 6.20 12.35 5.21 12.35C4.23 12.35 3.00 12.36 2.41 12.54L2.38 12.49C3.15 11.26 4.41 9.16 5.77 7.18C5.95 6.92 5.98 6.64 5.98 6.47L5.98 6.30L3.40 6.30C1.20 6.30 0.49 6.13 0.49 6.13C0.55 6.68 0.59 7.18 1.13 7.18C1.99 7.18 3.23 7.18 3.99 7.04L4.02 7.10C3.46 8.22 1.32 11.51 0.64 12.47C0.52 12.66 0.49 12.89 0.49 13.05C0.49 13.16 0.50 13.30 0.50 13.30ZM7.15 11.63C7.15 12.66 7.84 13.51 9.02 13.51C9.90 13.51 10.60 13.02 10.92 12.43L10.98 12.46C10.99 13.20 11.59 13.44 12.17 13.44C13.37 13.44 13.72 12.57 13.72 12.57L13.66 12.53C13.66 12.53 13.41 12.73 13.13 12.73C12.45 12.73 12.43 11.72 12.43 11.17L12.43 11.00C12.43 10.23 12.47 9.30 12.47 8.55C12.47 7.28 12.21 6.09 10.22 6.09C8.99 6.09 7.85 6.96 7.63 7.80L7.69 7.85C8.20 7.39 8.93 7.01 9.62 7.01C10.70 7.01 10.96 7.67 10.96 8.85L10.96 8.97C9.44 9.00 7.15 9.60 7.15 11.63ZM8.74 11.37C8.74 9.88 10.39 9.63 10.96 9.53C10.96 10.25 10.92 10.99 10.92 11.55C10.92 12.08 10.15 12.52 9.67 12.52C9.18 12.52 8.74 12.21 8.74 11.37ZM14.91 12.36C14.91 13.23 15.27 13.44 15.79 13.44C16.09 13.44 16.42 13.36 16.77 13.30C16.74 13.29 16.45 12.78 16.45 10.02C16.45 8.47 16.76 7.34 17.85 7.34C18.17 7.34 18.52 7.50 18.97 7.73L19.04 7.70C19.15 7.41 19.21 7.01 19.21 6.71C19.21 6.40 19.07 6.16 18.52 6.16C17.77 6.16 16.80 6.71 16.41 7.59L16.35 7.57C16.35 7.57 16.45 7.27 16.45 7.06C16.45 6.48 15.96 6.16 15.32 6.16C15.09 6.16 14.87 6.22 14.63 6.29C14.69 6.34 14.98 7.08 14.98 9.93C14.98 10.70 14.91 11.52 14.91 12.36ZM19.89 9.97C19.89 11.79 21.10 13.51 23.45 13.51C25.86 13.51 27.15 11.51 27.15 9.42C27.15 7.73 25.94 6.09 23.59 6.09C21.17 6.09 19.89 7.97 19.89 9.97ZM21.60 9.73C21.60 8.23 22.19 6.73 23.44 6.73C24.78 6.73 25.44 8.20 25.44 9.67C25.44 11.27 24.84 12.87 23.59 12.87C22.26 12.87 21.60 11.31 21.60 9.73ZM28.78 12.24C28.78 13.08 29.83 13.51 31.00 13.51C33.78 13.51 35.11 11.72 35.11 9.28C35.11 7.50 34.13 6.09 32.54 6.09C30.83 6.09 30.28 7.20 30.28 7.20L30.24 7.18C30.24 7.18 30.38 6.03 30.38 4.94C30.38 3.28 30.31 2.66 28.55 2.65L28.50 2.70C28.78 2.98 28.80 5.60 28.80 6.89C28.80 7.92 28.81 9.02 28.81 10.05C28.81 10.75 28.78 11.47 28.78 12.24ZM31.19 12.87C30.30 12.87 30.25 11.82 30.25 10.60C30.25 9.94 30.25 9.28 30.32 8.68C30.45 7.62 31.08 6.99 31.92 6.99C32.89 6.99 33.43 8.32 33.43 9.60C33.43 11.21 32.70 12.87 31.19 12.87ZM36.61 13.30C36.95 13.36 37.31 13.44 37.60 13.44C38.09 13.44 38.49 13.24 38.49 12.49C38.49 11.56 38.44 10.79 38.43 9.73L38.53 9.76C38.96 9.88 40.21 13.40 42.17 13.40C42.94 13.40 43.27 13.26 43.27 13.26L43.27 13.19C42.13 12.36 40.33 9.95 39.68 9.07L39.68 9.02C40.96 7.87 42.43 6.99 42.43 6.47C42.43 6.29 42.24 6.19 41.76 6.19C41.41 6.19 41.01 6.30 41.01 6.30C40.92 6.85 40.52 7.17 38.67 9.02L38.49 9.20L38.42 9.20L38.42 8.05C38.42 6.57 38.47 5.10 38.47 3.68C38.47 2.81 37.60 2.66 36.67 2.65L36.62 2.70C36.62 2.70 36.81 2.98 36.88 4.27C36.93 5.49 36.96 7.38 36.96 9.14C36.96 10.50 36.85 13.12 36.61 13.30ZM45.19 4.97C45.71 4.97 46.14 4.54 46.14 4.03C46.14 3.51 45.71 3.08 45.19 3.08C44.69 3.08 44.25 3.51 44.25 4.03C44.25 4.54 44.69 4.97 45.19 4.97ZM44.42 12.31C44.42 13.15 45.07 13.44 45.68 13.44C46.89 13.44 47.24 12.57 47.24 12.57L47.18 12.53C47.18 12.53 46.93 12.73 46.65 12.73C45.96 12.73 45.95 11.89 45.95 11.26C45.95 10.22 46.02 8.54 46.02 7.06C46.02 6.50 45.46 6.16 44.83 6.16C44.60 6.16 44.38 6.22 44.14 6.29C44.16 6.29 44.48 6.72 44.48 9.91C44.48 10.70 44.42 11.51 44.42 12.31ZM48.26 12.50C48.26 13.01 48.69 13.44 49.20 13.44C49.71 13.44 50.15 13.01 50.15 12.50C50.15 11.98 49.71 11.55 49.20 11.55C48.69 11.55 48.26 11.98 48.26 12.50ZM51.37 10.02C51.37 11.98 52.88 13.51 54.74 13.51C57.06 13.51 57.65 11.62 57.65 11.62L57.60 11.56C57.60 11.56 56.41 12.47 55.33 12.47C53.90 12.47 52.99 11.14 52.99 9.49C52.99 8.29 53.48 6.75 54.87 6.75C56.08 6.75 56.87 8.02 56.87 8.02L56.94 8.02C57.18 7.77 57.43 7.36 57.43 7.08C57.43 6.34 55.76 6.09 55.17 6.09C52.91 6.09 51.37 7.87 51.37 10.02ZM58.69 9.97C58.69 11.79 59.89 13.51 62.24 13.51C64.65 13.51 65.94 11.51 65.94 9.42C65.94 7.73 64.74 6.09 62.38 6.09C59.96 6.09 58.69 7.97 58.69 9.97ZM60.40 9.73C60.40 8.23 60.98 6.73 62.23 6.73C63.57 6.73 64.23 8.20 64.23 9.67C64.23 11.27 63.63 12.87 62.38 12.87C61.05 12.87 60.40 11.31 60.40 9.73ZM67.42 13.30C67.76 13.37 68.12 13.44 68.42 13.44C68.91 13.44 69.30 13.24 69.30 12.49C69.30 11.16 69.24 10.21 69.24 8.95C69.24 7.67 70.06 7.01 70.64 7.01C71.85 7.01 71.88 7.91 71.88 8.83C71.88 10.26 71.83 11.16 71.83 12.36C71.83 13.33 72.35 13.37 72.86 13.44C73.08 13.19 73.40 12.98 73.40 11.98C73.40 11.90 73.37 9.51 73.37 9.48C73.37 8.81 73.58 7.01 74.86 7.01C76.02 7.01 76.05 7.91 76.05 8.83C76.05 10.26 76.01 11.10 76.01 12.31C76.01 13.15 76.65 13.44 77.27 13.44C78.47 13.44 78.82 12.57 78.82 12.57L78.76 12.53C78.76 12.53 78.51 12.73 78.23 12.73C77.55 12.73 77.53 11.89 77.53 11.26C77.53 10.05 77.59 9.13 77.59 8.11C77.59 7.13 77.39 6.16 75.54 6.16C74.65 6.16 73.64 6.61 73.33 7.29L73.28 7.28C73.22 6.66 72.69 6.16 71.37 6.16C70.48 6.16 69.47 6.61 69.20 7.29L69.15 7.28C69.15 7.28 69.20 7.11 69.20 6.93C69.20 6.50 68.75 6.16 68.11 6.16C67.89 6.16 67.66 6.22 67.42 6.29C67.42 6.29 67.63 6.41 67.70 7.77C67.73 8.44 67.76 9.17 67.76 9.87C67.76 12.38 67.52 13.26 67.42 13.30ZM79.83 12.50C79.83 13.01 80.26 13.44 80.77 13.44C81.28 13.44 81.72 13.01 81.72 12.50C81.72 11.98 81.28 11.55 80.77 11.55C80.26 11.55 79.83 11.98 79.83 12.50ZM83.61 15.47C83.61 16.34 83.94 16.55 84.46 16.55C84.76 16.55 85.09 16.46 85.44 16.41C85.44 16.41 85.19 15.67 85.19 14.06C85.19 13.85 85.19 13.62 85.20 13.38C85.44 13.43 85.64 13.45 85.90 13.45C88.69 13.45 90.02 11.68 90.02 9.28C90.02 7.50 89.04 6.09 87.44 6.09C85.74 6.09 85.19 7.20 85.19 7.20L85.12 7.17C85.13 7.11 85.15 7.03 85.15 6.93C85.15 6.50 84.66 6.16 84.01 6.16C83.79 6.16 83.57 6.22 83.33 6.29C83.61 7.03 83.65 8.61 83.65 9.93C83.65 12.71 83.61 14.10 83.61 15.47ZM85.16 12.35L85.16 10.60C85.16 9.94 85.16 9.28 85.23 8.68C85.36 7.62 85.99 6.99 86.83 6.99C87.79 6.99 88.34 8.32 88.34 9.60C88.34 11.19 87.61 12.80 86.10 12.80C85.58 12.80 85.16 12.71 85.16 12.35ZM91.76 12.22C91.76 13.16 92.40 13.44 93.02 13.44C94.22 13.44 94.57 12.57 94.57 12.57L94.51 12.53C94.51 12.53 94.26 12.73 93.98 12.73C93.49 12.73 93.37 12.28 93.35 11.80C93.31 10.57 93.30 9.30 93.30 8.05C93.30 6.57 93.35 5.10 93.35 3.68C93.35 2.81 92.48 2.66 91.55 2.65L91.50 2.70C91.50 2.70 91.69 2.98 91.76 4.27C91.80 5.17 91.83 6.43 91.83 7.74C91.83 9.37 91.76 11.07 91.76 12.22Z"></path></g><!----><g data-v-423bf9ae="" id="a0f5b4c0-69ee-403f-9416-4fb1d1f44bfc" transform="matrix(1.0637118816375732,0,0,1.0637118816375732,-1.5230247974395752,-7.49003267288208)" stroke="none" fill="black"><path d="M39.15 24.85l.34-1.58a11.88 11.88 0 0 0 .23-1.93 10.88 10.88 0 0 0-.58-3.76A10.62 10.62 0 0 0 34.75 12a10.06 10.06 0 0 0-3.12-1.33 9.84 9.84 0 0 0-3.25-.27 10.26 10.26 0 0 0-5.54 2.17 10.61 10.61 0 0 0-3.22 4.17c-.15.39-.3.77-.41 1.15S19 18.7 19 19l-.36 1.89c-.11.57.42 1.15 1.16 1.29a1.2 1.2 0 0 0 1.43-.65l.56-1.85a9.34 9.34 0 0 1 .66-1.64 7.63 7.63 0 0 1 2.47-2.7 6.8 6.8 0 0 1 3.7-1.17 6.55 6.55 0 0 1 3.89 1.23 6.54 6.54 0 0 1 2.73 5.72 7.53 7.53 0 0 1-.24 1.16c-.09.41-.25 1-.37 1.47L31.4 36.52c-2.22 8.83-4.53 18.24-6.83 27.76a42.48 42.48 0 0 1-2 6.69 33.3 33.3 0 0 1-3.13 6 33.89 33.89 0 0 1-4.25 5.26c-.4.39-.8.79-1.21 1.16l-.31.27a33.66 33.66 0 0 1-1.91-17c.2-1.44.51-2.78.85-4.29l1-4.36 1.82-8.32C17.74 39 19.59 30 20.75 23.46c.1-.58-.44-1.17-1.2-1.31a1.24 1.24 0 0 0-1.47.68l-.54 1.83a41.21 41.21 0 0 0-5.8-2.36l-.27-.09a5.28 5.28 0 0 0-.52-.11 4.66 4.66 0 0 0-1.1 0 4.77 4.77 0 0 0-2.14.68 4.88 4.88 0 0 0-2.15 2.75l-.19.64c-.43 1.48-.84 3-1.22 4.56-1.52 6.11-2.59 12.4-2.45 15.69a3 3 0 0 0 1.35.58 2.44 2.44 0 0 0 1.24.12C6 44.22 8 38.16 9.49 32c.38-1.54.74-3.09 1.06-4.6l.09-.42a42 42 0 0 0 6.06.62c-1.63 5.76-3.55 12.93-5.7 21.09l-2.07 8.24-1.1 4.33c-.36 1.42-.78 3.05-1 4.68a38.64 38.64 0 0 0-.34 10.14 39.18 39.18 0 0 0 2.43 10.25 2.67 2.67 0 0 0 .25.48A4.9 4.9 0 0 0 15.51 89a4.72 4.72 0 0 0 .87-.49l.37-.28.18-.16.73-.64c.48-.43 1-.89 1.42-1.34a38.59 38.59 0 0 0 5-6.09 38.06 38.06 0 0 0 3.65-7 46.63 46.63 0 0 0 2.17-7.43c2.24-9.54 4.42-19 6.42-27.86zM10.6 27a.17.17 0 0 1-.22 0h.23zm2.71 57l-.25-.11zm-.08.07zm.11-.05l.58.27zM98 62.35l-.35-1.44-.74-2.91-1.42-5.78-5.75-22.84-2.82-11-1.38-5.29-.17-.65-.09-.32-.15-.51a5.77 5.77 0 0 0-6.19-3.87A7.06 7.06 0 0 0 78 8l-1.24.33-2.45.65-4.73 1.28-8.76 2.41c-5.49 1.54-10.25 2.93-14 4.1a1.26 1.26 0 0 0-.56 1.62 1.19 1.19 0 0 0 1.2 1c3.9-.72 8.75-1.71 14.33-2.91l8.87-1.94 4.78-1.07 2.47-.56 1.25-.29a1.66 1.66 0 0 1 .34-.06h.19a1 1 0 0 1 .64.37.93.93 0 0 1 .16.32l.26 1.12L82 19.63l2.61 11 5.57 22.92 2.7 10.93a.66.66 0 0 1-.22.51.67.67 0 0 1-.25.14l-1.33.34-5.64 1.43C78 68.81 70.75 70.68 64 72.46 50.61 76 39.14 79.21 31.57 81.55a1.29 1.29 0 0 0-.57 1.66 1.22 1.22 0 0 0 1.24 1c2.11-.39 4.51-.87 7.15-1.41 0 0 0 .09.06.1 4.89 2.21 15.06 5.28 25.35 7.91l3.85 1 1 .23.24.06.32.07a5.54 5.54 0 0 0 .88.12 6 6 0 0 0 3.34-.78 5.93 5.93 0 0 0 2.33-2.41 6.07 6.07 0 0 0 .55-1.5l.19-.91.72-3.53c.71-3.63 1.25-6.86 1.53-9.38l7-1.66 5.65-1.36 1.51-.37a6.09 6.09 0 0 0 4.45-5.93 6.24 6.24 0 0 0-.16-1.32zM73.53 82l-1 3.45-.26.9a.67.67 0 0 1-.12.25.74.74 0 0 1-.33.26.69.69 0 0 1-.39 0h-.25l-.24-.06-1-.26-3.84-1c-6.82-1.8-13.71-3.36-19.1-4.33a1364.8 1364.8 0 0 0 18.24-4.08L76 74.64c-.81 2.08-1.63 4.58-2.47 7.36z"></path><path d="M52.82 27.79c-2-1.44-6.64-.34-7.77 1.84a11.15 11.15 0 0 0 .28 1.37 9.13 9.13 0 0 0 .32 1.19c2 1.46 6.65.39 7.78-1.77a11.38 11.38 0 0 0-.28-1.42 9.41 9.41 0 0 0-.33-1.21zM55.57 39.09c-3.12-1.15-11.26.8-13.52 3.26a6.44 6.44 0 0 0 .25 1.42 5.29 5.29 0 0 0 .37 1.23c3.13 1.18 11.27-.75 13.54-3.19a6.58 6.58 0 0 0-.26-1.45 5.45 5.45 0 0 0-.38-1.27zM58.32 50.39C54 49.52 42.45 52.33 39 55.07a4.57 4.57 0 0 0 .22 1.43 3.76 3.76 0 0 0 .4 1.17c4.38.89 15.94-1.89 19.38-4.61a4.66 4.66 0 0 0-.23-1.46 3.88 3.88 0 0 0-.45-1.21zM35.83 69.33c.17.65.42 1.14.57 1.13 9.76-.46 37.85-7.33 46.72-11.4.16-.07.13-.75-.07-1.5s-.43-1.18-.59-1.17c-9.75.49-37.84 7.38-46.71 11.47-.14.07-.11.74.08 1.47zM59.48 31.43a7.87 7.87 0 0 0 .14 2.62 7.28 7.28 0 0 0 3.16 4.66 8.88 8.88 0 0 0 2.48 1.1 14.62 14.62 0 0 0 4.68.44 10.23 10.23 0 0 1 3 .21 2.69 2.69 0 0 1 1.6.91 3 3 0 0 1 .46 1.79 3 3 0 0 1-.63 1.77 4.59 4.59 0 0 1-1.64 1.33 4.83 4.83 0 0 1-1.93.52 5.28 5.28 0 0 1-3.29-1c-.11-.08-.69.24-1.28.72s-.84.88-.73 1.05a7.28 7.28 0 0 0 4.94 3.15h.22a3.48 3.48 0 0 0 2.13 2.36s.67-.15 1.39-.36a12.15 12.15 0 0 0 1.18-.37A3.34 3.34 0 0 0 76 49.6a8.06 8.06 0 0 0 2-1.5 7.7 7.7 0 0 0 2.12-4.5A7.85 7.85 0 0 0 80 41a7.28 7.28 0 0 0-3.14-4.67 8.9 8.9 0 0 0-2.48-1.1 14.58 14.58 0 0 0-4.68-.45 10.26 10.26 0 0 1-3-.21 2.69 2.69 0 0 1-1.6-.91 3 3 0 0 1-.52-1.77 2.94 2.94 0 0 1 .62-1.76 4.56 4.56 0 0 1 1.63-1.33 4.8 4.8 0 0 1 1.92-.52 5.25 5.25 0 0 1 3.27 1c.11.08.71-.25 1.31-.73s.86-.91.75-1.08a7.31 7.31 0 0 0-5-3.15h-.22a4.34 4.34 0 0 0-2.31-3.15 13.31 13.31 0 0 0-1.43.36 11 11 0 0 0-1.22.39 4.16 4.16 0 0 0-.42 3.53 8 8 0 0 0-1.92 1.49 7.71 7.71 0 0 0-2.08 4.49z"></path></g><!----></svg>