<svg data-v-423bf9ae="" xmlns="http://www.w3.org/2000/svg" viewBox="0 0 406.04102275920206 60" class="font"><!----><!----><!----><g data-v-423bf9ae="" id="61704062-1304-4112-9b56-bc815ba5740c" fill="black" transform="matrix(4.315819263458252,0,0,4.315819263458252,-2.107347249984741,-11.43017864227295)"><path d="M0.50 13.30L3.14 13.30C5.45 13.30 6.31 13.41 6.31 13.41C6.22 12.60 6.20 12.35 5.21 12.35C4.23 12.35 3.00 12.36 2.41 12.54L2.38 12.49C3.15 11.26 4.41 9.16 5.77 7.18C5.95 6.92 5.98 6.64 5.98 6.47L5.98 6.30L3.40 6.30C1.20 6.30 0.49 6.13 0.49 6.13C0.55 6.68 0.59 7.18 1.13 7.18C1.99 7.18 3.23 7.18 3.99 7.04L4.02 7.10C3.46 8.22 1.32 11.51 0.64 12.47C0.52 12.66 0.49 12.89 0.49 13.05C0.49 13.16 0.50 13.30 0.50 13.30ZM7.15 11.63C7.15 12.66 7.84 13.51 9.02 13.51C9.90 13.51 10.60 13.02 10.92 12.43L10.98 12.46C10.99 13.20 11.59 13.44 12.17 13.44C13.37 13.44 13.72 12.57 13.72 12.57L13.66 12.53C13.66 12.53 13.41 12.73 13.13 12.73C12.45 12.73 12.43 11.72 12.43 11.17L12.43 11.00C12.43 10.23 12.47 9.30 12.47 8.55C12.47 7.28 12.21 6.09 10.22 6.09C8.99 6.09 7.85 6.96 7.63 7.80L7.69 7.85C8.20 7.39 8.93 7.01 9.62 7.01C10.70 7.01 10.96 7.67 10.96 8.85L10.96 8.97C9.44 9.00 7.15 9.60 7.15 11.63ZM8.74 11.37C8.74 9.88 10.39 9.63 10.96 9.53C10.96 10.25 10.92 10.99 10.92 11.55C10.92 12.08 10.15 12.52 9.67 12.52C9.18 12.52 8.74 12.21 8.74 11.37ZM14.91 12.36C14.91 13.23 15.27 13.44 15.79 13.44C16.09 13.44 16.42 13.36 16.77 13.30C16.74 13.29 16.45 12.78 16.45 10.02C16.45 8.47 16.76 7.34 17.85 7.34C18.17 7.34 18.52 7.50 18.97 7.73L19.04 7.70C19.15 7.41 19.21 7.01 19.21 6.71C19.21 6.40 19.07 6.16 18.52 6.16C17.77 6.16 16.80 6.71 16.41 7.59L16.35 7.57C16.35 7.57 16.45 7.27 16.45 7.06C16.45 6.48 15.96 6.16 15.32 6.16C15.09 6.16 14.87 6.22 14.63 6.29C14.69 6.34 14.98 7.08 14.98 9.93C14.98 10.70 14.91 11.52 14.91 12.36ZM19.89 9.97C19.89 11.79 21.10 13.51 23.45 13.51C25.86 13.51 27.15 11.51 27.15 9.42C27.15 7.73 25.94 6.09 23.59 6.09C21.17 6.09 19.89 7.97 19.89 9.97ZM21.60 9.73C21.60 8.23 22.19 6.73 23.44 6.73C24.78 6.73 25.44 8.20 25.44 9.67C25.44 11.27 24.84 12.87 23.59 12.87C22.26 12.87 21.60 11.31 21.60 9.73ZM28.78 12.24C28.78 13.08 29.83 13.51 31.00 13.51C33.78 13.51 35.11 11.72 35.11 9.28C35.11 7.50 34.13 6.09 32.54 6.09C30.83 6.09 30.28 7.20 30.28 7.20L30.24 7.18C30.24 7.18 30.38 6.03 30.38 4.94C30.38 3.28 30.31 2.66 28.55 2.65L28.50 2.70C28.78 2.98 28.80 5.60 28.80 6.89C28.80 7.92 28.81 9.02 28.81 10.05C28.81 10.75 28.78 11.47 28.78 12.24ZM31.19 12.87C30.30 12.87 30.25 11.82 30.25 10.60C30.25 9.94 30.25 9.28 30.32 8.68C30.45 7.62 31.08 6.99 31.92 6.99C32.89 6.99 33.43 8.32 33.43 9.60C33.43 11.21 32.70 12.87 31.19 12.87ZM36.61 13.30C36.95 13.36 37.31 13.44 37.60 13.44C38.09 13.44 38.49 13.24 38.49 12.49C38.49 11.56 38.44 10.79 38.43 9.73L38.53 9.76C38.96 9.88 40.21 13.40 42.17 13.40C42.94 13.40 43.27 13.26 43.27 13.26L43.27 13.19C42.13 12.36 40.33 9.95 39.68 9.07L39.68 9.02C40.96 7.87 42.43 6.99 42.43 6.47C42.43 6.29 42.24 6.19 41.76 6.19C41.41 6.19 41.01 6.30 41.01 6.30C40.92 6.85 40.52 7.17 38.67 9.02L38.49 9.20L38.42 9.20L38.42 8.05C38.42 6.57 38.47 5.10 38.47 3.68C38.47 2.81 37.60 2.66 36.67 2.65L36.62 2.70C36.62 2.70 36.81 2.98 36.88 4.27C36.93 5.49 36.96 7.38 36.96 9.14C36.96 10.50 36.85 13.12 36.61 13.30ZM45.19 4.97C45.71 4.97 46.14 4.54 46.14 4.03C46.14 3.51 45.71 3.08 45.19 3.08C44.69 3.08 44.25 3.51 44.25 4.03C44.25 4.54 44.69 4.97 45.19 4.97ZM44.42 12.31C44.42 13.15 45.07 13.44 45.68 13.44C46.89 13.44 47.24 12.57 47.24 12.57L47.18 12.53C47.18 12.53 46.93 12.73 46.65 12.73C45.96 12.73 45.95 11.89 45.95 11.26C45.95 10.22 46.02 8.54 46.02 7.06C46.02 6.50 45.46 6.16 44.83 6.16C44.60 6.16 44.38 6.22 44.14 6.29C44.16 6.29 44.48 6.72 44.48 9.91C44.48 10.70 44.42 11.51 44.42 12.31ZM48.26 12.50C48.26 13.01 48.69 13.44 49.20 13.44C49.71 13.44 50.15 13.01 50.15 12.50C50.15 11.98 49.71 11.55 49.20 11.55C48.69 11.55 48.26 11.98 48.26 12.50ZM51.37 10.02C51.37 11.98 52.88 13.51 54.74 13.51C57.06 13.51 57.65 11.62 57.65 11.62L57.60 11.56C57.60 11.56 56.41 12.47 55.33 12.47C53.90 12.47 52.99 11.14 52.99 9.49C52.99 8.29 53.48 6.75 54.87 6.75C56.08 6.75 56.87 8.02 56.87 8.02L56.94 8.02C57.18 7.77 57.43 7.36 57.43 7.08C57.43 6.34 55.76 6.09 55.17 6.09C52.91 6.09 51.37 7.87 51.37 10.02ZM58.69 9.97C58.69 11.79 59.89 13.51 62.24 13.51C64.65 13.51 65.94 11.51 65.94 9.42C65.94 7.73 64.74 6.09 62.38 6.09C59.96 6.09 58.69 7.97 58.69 9.97ZM60.40 9.73C60.40 8.23 60.98 6.73 62.23 6.73C63.57 6.73 64.23 8.20 64.23 9.67C64.23 11.27 63.63 12.87 62.38 12.87C61.05 12.87 60.40 11.31 60.40 9.73ZM67.42 13.30C67.76 13.37 68.12 13.44 68.42 13.44C68.91 13.44 69.30 13.24 69.30 12.49C69.30 11.16 69.24 10.21 69.24 8.95C69.24 7.67 70.06 7.01 70.64 7.01C71.85 7.01 71.88 7.91 71.88 8.83C71.88 10.26 71.83 11.16 71.83 12.36C71.83 13.33 72.35 13.37 72.86 13.44C73.08 13.19 73.40 12.98 73.40 11.98C73.40 11.90 73.37 9.51 73.37 9.48C73.37 8.81 73.58 7.01 74.86 7.01C76.02 7.01 76.05 7.91 76.05 8.83C76.05 10.26 76.01 11.10 76.01 12.31C76.01 13.15 76.65 13.44 77.27 13.44C78.47 13.44 78.82 12.57 78.82 12.57L78.76 12.53C78.76 12.53 78.51 12.73 78.23 12.73C77.55 12.73 77.53 11.89 77.53 11.26C77.53 10.05 77.59 9.13 77.59 8.11C77.59 7.13 77.39 6.16 75.54 6.16C74.65 6.16 73.64 6.61 73.33 7.29L73.28 7.28C73.22 6.66 72.69 6.16 71.37 6.16C70.48 6.16 69.47 6.61 69.20 7.29L69.15 7.28C69.15 7.28 69.20 7.11 69.20 6.93C69.20 6.50 68.75 6.16 68.11 6.16C67.89 6.16 67.66 6.22 67.42 6.29C67.42 6.29 67.63 6.41 67.70 7.77C67.73 8.44 67.76 9.17 67.76 9.87C67.76 12.38 67.52 13.26 67.42 13.30ZM79.83 12.50C79.83 13.01 80.26 13.44 80.77 13.44C81.28 13.44 81.72 13.01 81.72 12.50C81.72 11.98 81.28 11.55 80.77 11.55C80.26 11.55 79.83 11.98 79.83 12.50ZM83.61 15.47C83.61 16.34 83.94 16.55 84.46 16.55C84.76 16.55 85.09 16.46 85.44 16.41C85.44 16.41 85.19 15.67 85.19 14.06C85.19 13.85 85.19 13.62 85.20 13.38C85.44 13.43 85.64 13.45 85.90 13.45C88.69 13.45 90.02 11.68 90.02 9.28C90.02 7.50 89.04 6.09 87.44 6.09C85.74 6.09 85.19 7.20 85.19 7.20L85.12 7.17C85.13 7.11 85.15 7.03 85.15 6.93C85.15 6.50 84.66 6.16 84.01 6.16C83.79 6.16 83.57 6.22 83.33 6.29C83.61 7.03 83.65 8.61 83.65 9.93C83.65 12.71 83.61 14.10 83.61 15.47ZM85.16 12.35L85.16 10.60C85.16 9.94 85.16 9.28 85.23 8.68C85.36 7.62 85.99 6.99 86.83 6.99C87.79 6.99 88.34 8.32 88.34 9.60C88.34 11.19 87.61 12.80 86.10 12.80C85.58 12.80 85.16 12.71 85.16 12.35ZM91.76 12.22C91.76 13.16 92.40 13.44 93.02 13.44C94.22 13.44 94.57 12.57 94.57 12.57L94.51 12.53C94.51 12.53 94.26 12.73 93.98 12.73C93.49 12.73 93.37 12.28 93.35 11.80C93.31 10.57 93.30 9.30 93.30 8.05C93.30 6.57 93.35 5.10 93.35 3.68C93.35 2.81 92.48 2.66 91.55 2.65L91.50 2.70C91.50 2.70 91.69 2.98 91.76 4.27C91.80 5.17 91.83 6.43 91.83 7.74C91.83 9.37 91.76 11.07 91.76 12.22Z"></path></g><!----><!----></svg>